<?xml version="1.0" encoding="utf-8"?>
<!-- Generator: Adobe Illustrator 24.2.0, SVG Export Plug-In . SVG Version: 6.00 Build 0)  -->
<svg version="1.1" id="Layer_1" xmlns="http://www.w3.org/2000/svg" xmlns:xlink="http://www.w3.org/1999/xlink" x="0px" y="0px"
	 viewBox="0 0 75 79" style="enable-background:new 0 0 75 79;" xml:space="preserve">
<style type="text/css">
	.st0{filter:url(#Adobe_OpacityMaskFilter);}
	.st1{fill-rule:evenodd;clip-rule:evenodd;fill:#FFFFFF;}
	.st2{mask:url(#mask-3_2_);fill:#FFFFFF;}
</style>
<defs>
	<filter id="Adobe_OpacityMaskFilter" filterUnits="userSpaceOnUse" x="0" y="0.1" width="75" height="78.9">
		<feColorMatrix  type="matrix" values="1 0 0 0 0  0 1 0 0 0  0 0 1 0 0  0 0 0 1 0"/>
	</filter>
</defs>
<mask maskUnits="userSpaceOnUse" x="0" y="0.1" width="75" height="78.9" id="mask-3_2_">
	<g class="st0">
		<polygon id="path-2_2_" class="st1" points="0.1,0.1 75.1,0.1 75.1,79 0.1,79 		"/>
	</g>
</mask>
<path id="Fill-1" class="st2" d="M37.6,14.5l-1.9,3.6l-6,11.9l6,11.9l-1.8,3.6L26,30l7.9-15.5l1.8-3.6l1.9-3.6l1.8,3.6L37.6,14.5z
	 M41.8,30l-4.2,8.2l-4.2-8.3l4.2-8.3L41.8,30z M72.4,30h-3.7l0,0L47.3,71.8l-7.9-15.6l1.8-3.6l6.1,12l17.8-34.7h-0.6h-3h-3.3v0.6
	c0,0,2.6,0,1.1,3.6l-12,23.4L43,49.1l8.3-16.2l0,0c0.1-0.1,0.1-0.3,0.2-0.4l0,0c1.1-1.9,2.2-1.8,2.2-1.8l0,0v-0.6l0,0
	c0,0-1,0.2-1.9-1.8l0,0L43,11l-1.8-3.6l-1.8-3.6l-1.8-3.7l-1.8,3.6L34,7.3l-1.8,3.6l-8.8,17.3l0,0l-0.2,0.4
	c-0.9,1.6-1.7,1.4-1.7,1.4l0,0v0.6l0,0c0,0,1.1-0.1,2.2,1.8l0.2,0.5l0,0l8.2,16.2l-4.3,8.4L16,34.3c-1.6-3.7,1.1-3.7,1.1-3.7V30
	h-3.3h-3h-0.6l17.7,34.7l6.1-12l1.8-3.6l1.8-3.6l1.8-3.6l6-11.9l-6-11.9l1.8-3.6L49.1,30l-7.9,15.5l-1.8,3.6l-1.8,3.5l-1.8,3.6
	l-7.9,15.6L6.4,30l0,0H2.7H0v0.6c0,0,2.7-0.2,5.2,4.3L27.7,79l9.9-19.2L47.4,79l22.2-43.6l0,0c2.5-5.1,5.4-4.8,5.4-4.8V30H72.4z"/>
</svg>
