<?xml version="1.0" encoding="utf-8"?>
<!-- Generator: Adobe Illustrator 24.2.0, SVG Export Plug-In . SVG Version: 6.00 Build 0)  -->
<svg version="1.1" id="Layer_1" xmlns="http://www.w3.org/2000/svg" xmlns:xlink="http://www.w3.org/1999/xlink" x="0px" y="0px"
	 viewBox="0 0 152 175" style="enable-background:new 0 0 152 175;" xml:space="preserve">
<style type="text/css">
	.st0{fill:#212322;}
</style>
<g>
	<g>
		<path class="st0" d="M103.9,148.1c0-0.7,0-1.3,0-2c0.2,0,0.4-0.1,0.5-0.1c5.5,0,10.9,0,16.4,0c2.7,0,5.3,0.7,7.6,2
			c3.5,2,5.5,5.1,6.1,9c0.5,3.2,0.2,6.5-1.2,9.5c-2,4.4-5.5,6.9-10.2,7.7c-1.2,0.2-2.4,0.3-3.6,0.3c-4.9,0-9.9,0-14.9,0
			c-0.2,0-0.5,0-0.7,0c0-0.7,0-1.4,0-2c0.7-0.1,1.3-0.1,2-0.3c1.1-0.2,1.5-0.8,1.7-1.9c0-0.3,0-0.6,0-0.8c0-6.1,0-12.2,0-18.3
			c0-2.3-0.4-2.8-2.7-3.1C104.5,148.2,104.2,148.2,103.9,148.1z M113.5,148.4c0,0.4,0,0.6,0,0.8c0,6.6,0,13.3,0,20
			c0,0.3,0.1,0.6,0.1,0.9c0.1,1.1,0.7,1.8,1.7,1.9c1.6,0.1,3.2,0.2,4.7,0.1c3.7-0.1,6.8-2.6,7.7-6.2c0.8-3.2,0.9-6.4,0.1-9.5
			c-0.7-3.1-2.3-5.7-5.4-7c-0.8-0.3-1.6-0.6-2.5-0.7C117.8,148.5,115.7,148.5,113.5,148.4z"/>
		<path class="st0" d="M48.2,163.1c-0.3-2-0.2-4.1,0.2-6.1c0.6-2.7,1.9-5.1,4-7.2c2.5-2.4,5.5-3.7,9-4c2.6-0.2,5.2,0,7.6,1
			c4.4,1.9,7.1,5.3,8,9.9c1,5.2-0.1,10-3.8,13.9c-2.5,2.7-5.7,4-9.4,4.3c-2.7,0.2-5.3,0-7.8-1.2c-4.2-2-6.8-5.3-7.7-9.8
			C48.3,163.7,48.3,163.4,48.2,163.1z M54.5,160.1c0,2.7,0.5,5.7,2.3,8.5c1.8,2.9,4.9,4.2,8.2,3.5c2.5-0.5,3.9-2.2,4.8-4.5
			c1.4-3.4,1.4-7,0.8-10.6c-0.5-2.7-1.5-5.1-3.6-6.9c-2.7-2.4-8.4-2.8-10.8,1.8C54.9,154.4,54.5,157,54.5,160.1z"/>
		<path class="st0" d="M34.2,163c0-0.7,0-1.3,0-2c4.4,0,10.1,0,14.5,0c0,0.7-0.1,1.3-0.1,2c-0.5,0.1-2.1,0.1-2.5,0.2
			c-1.6,0.2-2.3,0.9-2.3,2.6c0,1.9,0,3.9,0,5.8c0,0.4-0.1,0.7-0.5,0.9c-3.6,1.9-7.4,2.8-11.4,2.6c-1.7-0.1-3.4-0.3-4.9-0.8
			c-5.9-1.7-9.7-6.8-9.7-13c0-4.5,1.3-8.4,4.5-11.5c2.5-2.4,5.6-3.7,9.1-4c3.5-0.3,6.8,0.1,10,1.6c2,0.9,2,0.9,2,3c0,1.5,0,3,0,4.5
			c-0.8,0-1.6,0-2.4,0c-0.5-1-0.9-2-1.5-3c-1.4-2.3-3.5-3.5-6.1-3.6c-1,0-2,0-3,0.2c-3.1,0.6-4.6,2.9-5.5,5.6
			c-1.3,4.2-1.1,8.5,0.5,12.5c1.2,3,3.3,5,6.6,5.5c1.9,0.3,3.9,0.2,5.7-0.8c0.5-0.3,0.7-0.5,0.7-1.1c0-1.5,0-3,0-4.5
			c0-1.7-0.6-2.4-2.3-2.6C35.1,163.1,34.7,163,34.2,163z"/>
		<path class="st0" d="M103.2,165.8c-0.5,3-1,5.9-1.5,8.8c-8.1,0-16.2,0-24.3,0c0-0.7,0-1.3,0-2c0.4-0.1,0.9-0.1,1.3-0.2
			c1.8-0.2,2.4-0.9,2.4-2.6c0-4.8,0-9.7,0-14.5c0-1.4,0-2.8,0-4.3c0-1.9-0.7-2.7-2.4-2.8c-0.4,0-0.8-0.1-1.2-0.1c0-0.7,0-1.3,0-2
			c4.4,0,8.7,0,13.2,0c0,0.7,0,1.3,0,2c-0.5,0.1-1,0.1-1.5,0.2c-1.5,0.2-2.1,0.9-2.2,2.4c0,1.7,0,3.4,0,5.1c0,4.5,0,9,0,13.5
			c0,1.9,0.8,2.8,2.7,2.8c1.6,0,3.2,0,4.8,0c1.6,0,2.8-0.8,3.7-2.1c0.8-1.2,1.6-2.5,2.3-3.7c0.2-0.4,0.4-0.5,0.9-0.5
			C101.9,165.8,102.5,165.8,103.2,165.8z"/>
	</g>
	<g>
		<path class="st0" d="M28.1,110.9c-0.8,0.1-1.5,0.2-2.2,0.4c-0.9,0.2-1.2,0.7-1.1,1.6c0.1,0.5,0.2,1.1,0.4,1.6
			c1.7,4.7,3.5,9.5,5.2,14.2c0.1,0.1,0.1,0.3,0.2,0.5c0.7-2,1.4-3.9,2-5.8c1-2.9,2.1-5.9,3.1-8.8c0.2-0.6,0.3-1.2,0.4-1.8
			c0.1-0.7-0.2-1.4-1-1.6c-0.7-0.2-1.5-0.3-2.3-0.4c0-0.6,0-1.3,0-2c3.1,0,6.1,0,9.2,0c0,0.7,0,1.3,0,2c0,0-0.1,0.1-0.1,0.1
			c-1.5,0.1-2.2,1-2.7,2.3c-2.9,8-5.9,15.9-8.8,23.8c-0.2,0.5-0.4,0.7-0.9,0.6c-0.5-0.1-1.1,0-1.6,0c-2.2-5.7-4.4-11.3-6.6-17
			c-0.7,1.9-1.5,3.7-2.2,5.5c-1.4,3.6-2.9,7.3-4.3,10.9c-0.2,0.5-0.4,0.6-0.9,0.6c-1.6,0-1.6,0-2.2-1.5c-3.1-7.8-6.2-15.5-9.3-23.3
			c-0.5-1.3-1.4-1.8-2.6-2c0-0.7,0-1.4,0-2.1c4.2,0,8.4,0,12.6,0c0,0.7,0,1.3,0,2c-0.6,0.1-1.2,0.1-1.8,0.2
			c-1.4,0.2-1.9,0.9-1.5,2.3c0.7,2.1,1.5,4.2,2.3,6.2c1.1,3,2.2,6,3.3,9c0.1,0.2,0.2,0.4,0.3,0.8c0.3-0.9,0.7-1.6,0.9-2.4
			c1.2-3.1,2.4-6.2,3.6-9.3c0.2-0.4,0.2-0.8,0-1.3c-0.4-1-0.9-2-1.2-3c-0.4-1.4-1.2-2.4-2.8-2.4c0-0.7,0-1.4,0-2.1
			c4.1,0,8.1,0,12.2,0C28.1,109.6,28.1,110.3,28.1,110.9z"/>
		<path class="st0" d="M68.1,124.1c-4.7,0-9.3,0-13.9,0c0,0.2,0,0.5,0,0.7c0,2.6,0,5.2,0,7.9c0,1.8,0.6,2.5,2.4,2.7
			c0.4,0,0.8,0.1,1.2,0.2c0,0.6,0,1.3,0,2c-4.4,0-8.8,0-13.2,0c0-0.7,0-1.3,0-2c0.7-0.1,1.4-0.2,2-0.3c0.9-0.2,1.4-0.8,1.6-1.7
			c0.1-0.3,0.1-0.7,0.1-1c0-6.1,0-12.2,0-18.3c0-2.4-0.9-2.9-2.5-3c-0.4,0-0.7-0.1-1.1-0.1c0-0.7,0-1.3,0-2c4.4,0,8.8,0,13.2,0
			c0,0.7,0,1.3,0,2c-0.5,0.1-1,0.1-1.6,0.2c-1.3,0.2-2,0.7-2,2c-0.1,1.3-0.1,2.7-0.1,4c0,1.4,0,2.9,0,4.4c4.7,0,9.3,0,14,0
			c0-0.3,0-0.5,0-0.7c0-2.2,0-4.4,0-6.6c0-2.3-0.4-2.8-2.7-3.1c-0.3,0-0.6,0-0.9-0.1c0-0.7,0-1.3,0-2c4.4,0,8.7,0,13.2,0
			c0,0.7,0,1.3,0,2c-0.5,0.1-0.9,0.1-1.4,0.2c-1.7,0.2-2.3,0.9-2.3,2.6c0,2.9,0,5.8,0,8.8c0,3.3,0,6.6,0,10c0,1.9,0.6,2.6,2.5,2.8
			c0.4,0.1,0.8,0.1,1.2,0.2c0,0.7,0,1.3,0,2c-4.4,0-8.8,0-13.2,0c0-0.7,0-1.3,0-2c0.6-0.1,1.2-0.1,1.9-0.3c1.1-0.2,1.7-0.7,1.7-1.8
			C68.2,130.3,68.1,127.2,68.1,124.1z"/>
		<path class="st0" d="M126.1,110.9c0-0.7,0-1.3,0-2c8.1,0,16.2,0,24.4,0c0,2.4,0,4.8,0,7.2c-0.6,0-1.3,0-2,0
			c-0.1,0-0.3-0.3-0.4-0.4c-0.4-0.7-0.8-1.6-1.2-2.3c-0.8-1.3-2-2-3.5-2c-2.6-0.1-5.2,0-7.8,0c0,3.3,0,6.7,0,10.1
			c0.1,0,0.1,0.1,0.2,0.1c1.8,0,3.7,0,5.5,0c1.6,0,2.3-0.6,2.8-2.1c0.1-0.4,0.2-0.8,0.3-1.3c0.7,0,1.4,0,2.1,0c0,3.1,0,6.2,0,9.3
			c-0.7,0-1.4,0-2,0c-0.2-0.5-0.3-1.1-0.5-1.6c-0.4-1.1-1.1-1.8-2.3-1.8c-2,0-4,0-6.1,0c0,0.2,0,0.5,0,0.7c0,2.5,0,4.9,0,7.4
			c0,1.8,0.8,2.7,2.7,2.8c1.7,0,3.5,0,5.2,0c1.6,0,2.9-0.8,3.8-2c0.7-0.9,1.4-1.9,2-2.8c0.2-0.3,0.5-0.5,0.9-0.5c0.5,0,1.1,0,1.7,0
			c-0.4,2.6-0.9,5.2-1.3,7.8c-8.2,0-16.4,0-24.6,0c0-0.7,0-1.3,0-2c0.6-0.1,1.2-0.1,1.8-0.3c1.3-0.3,1.8-1,1.8-2.4
			c0-3.3,0-6.5,0-9.8c0-3,0-6,0-9c0-2-0.5-2.6-2.5-2.9C126.9,111,126.5,111,126.1,110.9z"/>
		<path class="st0" d="M96.2,108.9c9.1,0,18.2,0,27.3,0c0.2,2.9,0.4,5.7,0.6,8.6c-0.7,0-1.4,0-2.1,0c-0.2,0-0.4-0.2-0.5-0.4
			c-0.5-0.9-0.9-1.9-1.4-2.8c-0.9-1.9-2.3-3-4.5-3.1c-0.9,0-1.8,0-2.8,0c0,0.2,0,0.5,0,0.7c0,6.8,0,13.7,0,20.5
			c0,1.9,0.6,2.6,2.5,2.8c0.4,0.1,0.9,0.1,1.4,0.2c0,0.7,0,1.3,0,2c-4.5,0-9.1,0-13.7,0c0-0.7,0-1.3,0-2c0.5-0.1,1-0.1,1.5-0.2
			c1.7-0.2,2.4-0.9,2.4-2.6c0-1.9,0-3.7,0-5.6c0-5,0-10,0-15c0-0.3,0-0.5,0-0.9c-2.2,0.1-4.5-0.4-6.2,1.5c-0.5,0.6-0.9,1.3-1.3,2
			c-0.3,0.5-0.5,0.9-0.7,1.4c-0.8,1.6-1.1,1.7-3,1.4C95.8,114.6,96,111.8,96.2,108.9z"/>
		<path class="st0" d="M80.5,110.9c0-0.7,0-1.4,0-2c4.4,0,8.8,0,13.2,0c0,0.7,0,1.4,0,2c-0.5,0.1-1,0.1-1.4,0.2
			c-1.6,0.2-2.2,0.9-2.2,2.5c0,1.5,0,3.1,0,4.6c0,4.7,0,9.5,0,14.2c0,1.9,0.6,2.6,2.5,2.8c0.4,0,0.8,0.1,1.2,0.2c0,0.7,0,1.3,0,2
			c-4.4,0-8.8,0-13.2,0c0-0.7,0-1.3,0-2c0.5-0.1,1.1-0.1,1.6-0.2c1.3-0.2,2-0.9,2.1-2.2c0-0.9,0-1.8,0-2.7c0-5.4,0-10.9,0-16.3
			c0-2.4-0.9-2.8-2.6-3C81.2,111,80.9,111,80.5,110.9z"/>
	</g>
	<path class="st0" d="M116.8,34.7h-4.3l0,0L87.4,83.3l-9.3-18.1l2.1-4.2l7.1,13.9l20.8-40.2h-0.7h-3.5l-2.6,4.9l-14,27l-5-9.8L92,38
		l0,0c0.1-0.2,0.1-0.3,0.2-0.4l0-0.1c0.7-1.3,1.4-2.8,1.4-2.8s-0.6-1.2-1-2.1l0,0l-10.3-20l-2.1-4.2l-2.1-4.2L75.9,0l-2.1,4.2
		l-2.1,4.2l-2.1,4.2l-10.3,20l0,0l-1.1,2.1l1.8,3.3l0,0l9.7,18.8l-5,9.8L50.7,39.7c-1.9-4.3-2.2-5-2.2-5h-4.7l20.7,40.2L71.6,61
		l2.1-4.2l2.1-4.2l2.1-4.2l7.1-13.8l-7.1-13.8l2.1-4.2l9.2,17.9l-9.2,17.9l-2.1,4.2l-2.1,4.2l-2.1,4.2l-9.3,18.1l-25-48.6l0,0h0
		h-4.3h-1.3v3.5h0.6c1.5,0,2.9,0.8,3.7,2.2l0,0l26.3,51.2l11.4-22.3l11.4,22.3l26.1-50.6l0,0l0,0c0.9-1.7,2.6-2.7,4.5-2.7h0.1v-3.5
		L116.8,34.7L116.8,34.7z M80.9,34.7L76,44.3L71,34.7l4.9-9.6L80.9,34.7z M76,16.7l-2.1,4.2l-7.1,13.7l7.1,13.8l-2.1,4.2l-9.2-17.9
		l9.2-17.9l2.1-4.2L76,8.4l2.1,4.2L76,16.7z"/>
</g>
</svg>
