<?xml version="1.0" encoding="utf-8"?>
<!-- Generator: Adobe Illustrator 24.2.0, SVG Export Plug-In . SVG Version: 6.00 Build 0)  -->
<svg version="1.1" id="Layer_1" xmlns="http://www.w3.org/2000/svg" xmlns:xlink="http://www.w3.org/1999/xlink" x="0px" y="0px"
	 viewBox="0 0 140 177" style="enable-background:new 0 0 140 177;" xml:space="preserve">
<defs>
	<filter id="Adobe_OpacityMaskFilter" filterUnits="userSpaceOnUse" x="32.5" y="0" width="74.9" height="78.9">
		<feColorMatrix  type="matrix" values="1 0 0 0 0  0 1 0 0 0  0 0 1 0 0  0 0 0 1 0"/>
	</filter>
</defs>
<mask maskUnits="userSpaceOnUse" x="32.5" y="0" width="74.9" height="78.9" id="mask-3_1_">
	<g style="filter:url(#Adobe_OpacityMaskFilter);">
		<polygon id="path-2_1_" style="fill-rule:evenodd;clip-rule:evenodd;fill:#FFFFFF;" points="32.5,0 107.5,0 107.5,78.9 32.5,78.9 
					"/>
	</g>
</mask>
<path id="Fill-1" style="mask:url(#mask-3_1_);fill:#212322;" d="M70,14.4L68.1,18l-6,11.9l6,11.9l-1.8,3.6l-7.9-15.5l7.9-15.5
	l1.8-3.6L70,7.2l1.8,3.6L70,14.4z M74.2,29.9L70,38.1l-4.2-8.3l4.2-8.3L74.2,29.9z M104.8,29.9h-3.7h0L79.7,71.7l-7.9-15.6l1.8-3.6
	l6.1,12l17.8-34.7h-0.6h-3h-3.3v0.6c0,0,2.6,0,1.1,3.6L79.7,57.4l-4.3-8.4l8.3-16.2l0,0c0.1-0.1,0.1-0.3,0.2-0.4l0,0
	c1.1-1.9,2.2-1.8,2.2-1.8v0v-0.6v0c0,0-1,0.2-1.9-1.8l0,0l-8.8-17.3l-1.8-3.6l-1.8-3.6L70,0l-1.8,3.6l-1.8,3.6l-1.8,3.6l-8.8,17.3
	l0,0l-0.2,0.4c-0.9,1.6-1.7,1.4-1.7,1.4v0v0.6v0c0,0,1.1-0.1,2.2,1.8l0.2,0.5l0,0l8.2,16.2l-4.3,8.4L48.4,34.2
	c-1.6-3.7,1.1-3.7,1.1-3.7v-0.6h-3.3h-3h-0.6l17.7,34.7l6.1-12l1.8-3.6l1.8-3.6l1.8-3.6l6-11.9l-6-11.9l1.8-3.6l7.9,15.5l-7.9,15.5
	l-1.8,3.6L70,52.5l-1.8,3.6l-7.9,15.6L38.8,29.9h0h-3.7h-2.7v0.6c0,0,2.7-0.2,5.2,4.3l22.5,44.1L70,59.7l9.8,19.2L102,35.3l0,0
	c2.5-5.1,5.4-4.8,5.4-4.8v-0.6H104.8z"/>
<path id="WHITEGOLD" style="fill:#212322;" d="M26.2,133.7l1.6-0.2l7.5-22.8c0.8-2.8,2.1-4.2,3.8-4.2l0,0v-1.3H30v1.3
	c2.3,0,3.5,0.7,3.5,2.2c0,0.3,0,0.7,0,1c0,0.3-0.1,0.7-0.3,1.1l0,0l-5.1,16.3L22,108.8c-0.1-0.2-0.1-0.4-0.1-0.5
	c0-1.1,1-1.7,3.1-1.7l0,0v-1.3H14.1v1.3c0.9,0,1.6,0.1,2.1,0.4c0.5,0.2,0.8,0.6,1,1.1l0,0l1.6,4.3l-5,14.9l-6.1-17.9
	c-0.1-0.2-0.2-0.4-0.2-0.6c-0.1-0.2-0.1-0.3-0.1-0.5c0-0.5,0.2-0.9,0.7-1.2c0.4-0.3,1.3-0.4,2.6-0.4l0,0v-1.3H0v1.3
	c1.3,0,2.4,0.9,3.2,2.7l0,0l8.9,24.5l1.6-0.2l5.9-18.5L26.2,133.7z M53.1,133.1v-1.3c-2.6,0-3.9-1-3.9-2.9l0,0v-8.8
	c0.4-0.2,0.9-0.4,1.4-0.5c0.5-0.1,1-0.1,1.6-0.1l0,0h7.6c1.6,0,2.7,0.2,3.2,0.6l0,0v8.8c0,1.9-1.4,2.9-4.2,2.9l0,0v1.3h12.2v-1.3
	c-2.6,0-3.8-1-3.8-2.9l0,0v-18.7c0-2.5,1.3-3.7,3.8-3.7l0,0v-1.3H58.9v1.3c2.8,0,4.2,1.2,4.2,3.7l0,0v7.2c-0.6,0.3-1.6,0.5-3.2,0.5
	l0,0h-7.6c-1.1,0-2.1-0.2-3-0.5l0,0v-7.2c0-2.5,1.3-3.7,3.9-3.7l0,0v-1.3H40.7v1.3c2.9,0,4.3,1.2,4.3,3.7l0,0V129
	c0,1.9-1.4,2.9-4.3,2.9l0,0v1.3H53.1z M87.5,133.1v-1.3c-2.7,0-4-1-4-2.9l0,0v-18.7c0-2.5,1.3-3.7,3.9-3.7l0,0v-1.3H75.1v1.3
	c2.8,0,4.2,1.2,4.2,3.7l0,0V129c0,1.9-1.3,2.9-4,2.9l0,0v1.3H87.5z M108.2,133.1v-1.3c-3,0-4.6-1.3-4.6-3.9l0,0v-19.3
	c0-1,0.7-1.4,2.1-1.4c4.2,0,6.4,2.2,6.7,6.7l0,0l1.1-0.2V105c-0.6,0.1-1.3,0.2-1.9,0.2c-0.6,0.1-1.2,0.1-1.8,0.1l0,0H93.7
	c-0.5,0-1.1,0-1.7-0.1c-0.6-0.1-1.2-0.1-1.8-0.2l0,0l-1.1,8.9l1.3,0.3c0.6-2.4,1.4-4.2,2.6-5.4s2.7-1.8,4.5-1.8
	c1.4,0,2.1,0.5,2.1,1.6l0,0V128c0,2.6-1.5,3.9-4.5,3.9l0,0v1.3H108.2z M138.9,133.1l1.1-8.3l-1.1-0.3c-0.4,1.2-0.8,2.2-1.2,3.1
	c-0.4,0.9-0.9,1.6-1.6,2.2c-0.7,0.6-1.6,1-2.6,1.3c-1.1,0.3-2.5,0.4-4.3,0.4l0,0h-1.3c-2.2,0-3.4-0.8-3.4-2.4l0,0v-8
	c0-0.9,0.6-1.4,1.9-1.4l0,0h0.5c0.9,0,1.7,0,2.3,0.1c0.6,0.1,1.1,0.3,1.6,0.6c0.4,0.3,0.7,0.8,1,1.4s0.4,1.4,0.5,2.5l0,0h1.6v-10.9
	h-1.6c-0.1,1-0.3,1.9-0.6,2.5s-0.7,1-1.1,1.3c-0.5,0.3-1,0.5-1.6,0.5c-0.6,0.1-1.3,0.1-2,0.1l0,0h-1.4c-0.7,0-1-0.4-1-1.3l0,0V109
	c0-1.3,1.1-1.9,3.2-1.9l0,0h1.2c1.1,0,2.1,0,3,0.1c0.9,0.1,1.8,0.3,2.5,0.7c0.7,0.4,1.3,1,1.8,1.9c0.5,0.8,0.9,2,1.1,3.5l0,0
	l1.3-0.2l-0.3-7.8h-22.1v1.3c2.8,0,4.2,1.2,4.2,3.5l0,0v19c0,1.8-1.3,2.7-3.9,2.7l0,0v1.3H138.9z M26.8,177c1.4,0,2.8-0.2,4.1-0.7
	c1.3-0.4,2.5-1,3.4-1.7l0,0l3,2.2h1.1v-8.6c0-2.1,1.3-3.2,3.8-3.2l0,0v-1.3H30.2v1.3c2.9,0,4.3,1.5,4.3,4.4c0,1.1-0.2,2-0.5,2.7
	s-0.8,1.3-1.5,1.8c-0.6,0.5-1.3,0.8-2.1,1c-0.8,0.2-1.7,0.3-2.6,0.3c-1.6,0-2.9-0.3-4.1-1c-1.2-0.7-2.1-1.6-2.9-2.8
	c-0.8-1.2-1.4-2.5-1.8-4.1c-0.4-1.6-0.6-3.2-0.6-5c0-1.6,0.2-3.2,0.5-4.7c0.3-1.5,0.9-2.9,1.6-4.1c0.7-1.2,1.7-2.1,2.9-2.9
	s2.6-1.1,4.3-1.1c2.4,0,4.4,0.8,6,2.3c1.6,1.5,2.7,3.5,3.3,6l0,0h1.4c0-4.1-0.5-7.2-1.4-9.6c-1,0.2-2,0.8-3,1.8
	c-1.1-0.6-2.2-1-3.3-1.5c-1.1-0.4-2.3-0.6-3.5-0.6c-2,0-3.8,0.4-5.5,1.3c-1.7,0.8-3.1,2-4.3,3.4s-2.1,3-2.8,4.8
	c-0.7,1.8-1,3.7-1,5.6c0,2,0.3,3.8,1,5.5c0.6,1.7,1.6,3.2,2.7,4.5c1.2,1.3,2.6,2.3,4.2,3C23.1,176.6,24.8,177,26.8,177z M57.7,177
	c2.1,0,4.1-0.4,5.8-1.3c1.7-0.9,3.2-2,4.4-3.4c1.2-1.4,2.2-3,2.8-4.7c0.7-1.8,1-3.5,1-5.3c0-2-0.4-3.9-1.1-5.7
	c-0.7-1.7-1.7-3.2-2.9-4.5c-1.3-1.3-2.7-2.3-4.5-3c-1.7-0.7-3.6-1.1-5.7-1.1c-2.1,0-4,0.4-5.7,1.2c-1.7,0.8-3.2,1.9-4.4,3.3
	s-2.1,2.9-2.8,4.7c-0.6,1.7-1,3.5-1,5.4c0,2,0.3,3.9,1,5.6s1.6,3.3,2.9,4.6c1.2,1.3,2.7,2.3,4.4,3.1C53.9,176.6,55.7,177,57.7,177z
	 M58.1,175.4c-1.6,0-3-0.3-4.2-1c-1.2-0.7-2.2-1.6-2.9-2.8c-0.8-1.2-1.3-2.6-1.7-4.2c-0.4-1.6-0.5-3.3-0.5-5.2
	c0-1.7,0.1-3.3,0.4-4.8s0.8-2.9,1.5-4.1s1.6-2.1,2.7-2.8c1.1-0.7,2.5-1,4.1-1c1.7,0,3.2,0.4,4.4,1.1c1.2,0.7,2.2,1.7,3,2.9
	c0.8,1.2,1.3,2.6,1.7,4.2c0.4,1.6,0.5,3.2,0.5,4.9c0,1.8-0.2,3.5-0.5,5c-0.4,1.6-0.9,2.9-1.6,4c-0.7,1.1-1.7,2-2.8,2.7
	C61,175.1,59.6,175.4,58.1,175.4z M97.7,176.4l1.3-8.6l-1.1-0.2c-1,3.3-2.1,5.3-3.3,6c-0.7,0.3-1.5,0.6-2.4,0.8
	c-1,0.2-2.1,0.3-3.4,0.3l0,0h-1.9c-1.8,0-2.7-0.6-2.7-1.8l0,0V153c0-2.1,1.3-3.2,3.9-3.2l0,0v-1.3H75.7v1.3c2.8,0,4.2,1.1,4.2,3.2
	l0,0v19.8c0,1.5-1.2,2.3-3.7,2.3l0,0v1.3H97.7z M111.3,176.4c3,0,5.6-0.3,7.8-1c2.2-0.7,3.9-1.6,5.3-2.8c1.4-1.2,2.4-2.7,3.1-4.4
	c0.6-1.7,1-3.6,1-5.7c0-2.2-0.3-4.1-1-5.9c-0.7-1.7-1.6-3.2-2.9-4.4c-1.3-1.2-2.8-2.1-4.7-2.8s-4-1-6.4-1c-0.9,0-1.7,0-2.5,0
	c-0.8,0-1.5,0.1-2.2,0.1c-0.7,0-1.4,0.1-2.2,0.1s-1.5,0-2.4,0c-0.6,0-1.3,0-1.9,0c-0.6,0-1.2-0.1-1.8-0.1l0,0v1.3
	c0.8,0.2,1.4,0.3,1.9,0.3s1,0.2,1.3,0.4s0.6,0.6,0.7,1c0.1,0.5,0.2,1.2,0.2,2.2l0,0v17.4c0,0.8,0,1.5-0.1,2
	c-0.1,0.5-0.3,0.9-0.6,1.2c-0.3,0.3-0.7,0.4-1.2,0.5c-0.5,0.1-1.2,0.1-2,0.1l0,0v1.3H111.3z M113.9,174.7h-1.3c-0.7,0-1.3,0-1.8-0.1
	c-0.5,0-0.9-0.2-1.2-0.4s-0.5-0.5-0.6-1s-0.2-1-0.2-1.8l0,0v-18.8c0-0.6,0-1,0.1-1.4c0.1-0.3,0.2-0.6,0.4-0.8
	c0.2-0.2,0.5-0.3,0.8-0.3s0.8-0.1,1.3-0.1l0,0h1.7c3.4,0,6,1,7.8,3s2.7,5.1,2.7,9.3c0,4.2-0.8,7.3-2.4,9.3S117.2,174.7,113.9,174.7
	L113.9,174.7z"/>
</svg>
