<?xml version="1.0" encoding="utf-8"?>
<!-- Generator: Adobe Illustrator 24.2.0, SVG Export Plug-In . SVG Version: 6.00 Build 0)  -->
<svg version="1.1" id="Layer_1" xmlns="http://www.w3.org/2000/svg" xmlns:xlink="http://www.w3.org/1999/xlink" x="0px" y="0px"
	 viewBox="0 0 75 82" style="enable-background:new 0 0 75 82;" xml:space="preserve">
<style type="text/css">
	.st0{fill:#FFFFFF;}
</style>
<path class="st0" d="M73.9,31.3h-3.8l0,0L47.7,74.6l-8.3-16.1l1.9-3.7l6.4,12.4l18.5-35.8h-0.7h-3.1l-2.3,4.3L47.7,59.7L43.2,51
	l8.6-16.8l0,0c0.1-0.1,0.1-0.3,0.2-0.4l0,0c0.7-1.2,1.2-2.5,1.2-2.5s-0.5-1-0.9-1.9l0,0l-9.2-17.9l-1.9-3.7l-1.9-3.7l-1.9-3.7
	l-1.9,3.7l-1.9,3.7l-1.9,3.7l-9.2,17.9l0,0l-1,1.8l1.6,2.9l0,0L31.8,51l-4.5,8.7L15,35.8c-1.7-3.9-2-4.5-2-4.5H8.8l18.5,35.8
	l6.4-12.4l1.9-3.7l1.9-3.7l1.9-3.7l6.3-12.3L39.4,19l1.9-3.7l8.2,16l-8.2,16L39.4,51l-1.9,3.7l-1.9,3.7l-8.3,16.1L5,31.3l0,0h0H1.2
	H0v3.1h0.5c1.4,0,2.6,0.7,3.3,1.9l0,0L27.3,82l10.2-19.9L47.7,82l23.3-45.1l0,0l0,0c0.8-1.5,2.3-2.4,4-2.4H75v-3.1L73.9,31.3
	L73.9,31.3z M41.9,31.3l-4.4,8.5l-4.4-8.5l4.4-8.5L41.9,31.3z M37.5,15.3L35.6,19l-6.3,12.3l6.3,12.3l-1.9,3.7l-8.2-16l8.2-16
	l1.9-3.7l1.9-3.7l1.9,3.7L37.5,15.3z"/>
</svg>
