<?xml version="1.0" encoding="utf-8"?>
<!-- Generator: Adobe Illustrator 24.2.0, SVG Export Plug-In . SVG Version: 6.00 Build 0)  -->
<svg version="1.1" id="Layer_1" xmlns="http://www.w3.org/2000/svg" xmlns:xlink="http://www.w3.org/1999/xlink" x="0px" y="0px"
	 viewBox="0 0 64 64" style="enable-background:new 0 0 64 64;" xml:space="preserve">
<style type="text/css">
	.st0{fill-rule:evenodd;clip-rule:evenodd;fill:#FF6D6A;}
</style>
<path id="Fill-7" class="st0" d="M2,0.8v15.5c0,0.5,0.4,0.8,0.8,0.8H34c0.3,0,0.4,0.4,0.2,0.6L0.2,51.6c-0.3,0.3-0.3,0.8,0,1.2
	l10.9,10.9c0.3,0.3,0.8,0.3,1.2,0l34-34c0.2-0.2,0.6-0.1,0.6,0.2v31.2c0,0.5,0.4,0.8,0.8,0.8h15.5c0.5,0,0.8-0.4,0.8-0.8V1.1
	C64,0.5,63.5,0,62.9,0H2.8C2.3,0,2,0.4,2,0.8"/>
</svg>
