<?xml version="1.0" encoding="utf-8"?>
<!-- Generator: Adobe Illustrator 24.2.0, SVG Export Plug-In . SVG Version: 6.00 Build 0)  -->
<svg version="1.1" id="Layer_1" xmlns="http://www.w3.org/2000/svg" xmlns:xlink="http://www.w3.org/1999/xlink" x="0px" y="0px"
	 viewBox="0 0 26 26" style="enable-background:new 0 0 26 26;" xml:space="preserve">
<style type="text/css">
	.st0{fill:#0A4FFD;}
	.st1{fill:#FFFFFF;}
</style>
<g>
	<rect class="st0" width="26" height="26"/>
	<path id="Combined-Shape" class="st1" d="M6,10c0-1.8,0.7-3.4,1.6-4.5l0,0c1-1.2,2.8-2.5,5.3-2.5c1.1,0,1.9,0.2,2.1,0.3l0,0l0,0
		l0,0l0,0c1.7,0.6,3.2,1.7,4.1,3.4c0,0,0.8,1.3,0.8,3.2c0,2-0.8,3.5-0.8,3.5c-0.6,1.3-2.1,3-2.3,3.3c-0.8,1-1.7,2.1-2.3,3.3
		c-0.3,0.6-0.6,1.3-0.8,2.1c-0.1,0.4-0.3,0.7-0.7,0.7c-0.3,0-0.5-0.2-0.7-0.7c-0.3-0.9-0.5-1.4-0.9-2.2c-0.3-0.6-1-1.5-1.6-2.3l0,0
		l-0.3-0.3c-1-1.2-2.2-2.6-2.9-4.1l0,0C6.7,13.3,6,12,6,10z M10.9,8.3L10.9,8.3l-0.1,0.2c-0.2,0.3-0.5,0.8-0.5,1.5
		c0,1.5,1.2,2.6,2.7,2.6c1,0,1.6-0.5,1.9-0.8l0.1-0.1l0.1-0.1l0.1-0.1c0.2-0.3,0.5-0.8,0.5-1.5c0-1.5-1.3-2.6-2.7-2.6
		C11.8,7.4,11.1,8.1,10.9,8.3L10.9,8.3L10.9,8.3L10.9,8.3z"/>
</g>
</svg>
