<?xml version="1.0" encoding="utf-8"?>
<!-- Generator: Adobe Illustrator 24.2.0, SVG Export Plug-In . SVG Version: 6.00 Build 0)  -->
<svg version="1.1" id="Layer_1" xmlns="http://www.w3.org/2000/svg" xmlns:xlink="http://www.w3.org/1999/xlink" x="0px" y="0px"
	 viewBox="0 0 24 24" style="enable-background:new 0 0 24 24;" xml:space="preserve">
<style type="text/css">
	.st0{fill:#FFFFFF;}
</style>
<g>
	<path class="st0" d="M9,24H1c-0.6,0-1-0.4-1-1V13c0-5,1.9-8.4,5.6-9.9c0.5-0.2,1.1,0,1.3,0.5c0.2,0.5,0,1.1-0.5,1.3
		C3.7,6,2.2,8.4,2,12h7c0.6,0,1,0.4,1,1v10C10,23.6,9.6,24,9,24z"/>
	<path class="st0" d="M23,24h-8c-0.6,0-1-0.4-1-1V13c0-5,1.9-8.4,5.6-9.9c0.5-0.2,1.1,0,1.3,0.5c0.2,0.5,0,1.1-0.5,1.3
		C17.7,6,16.2,8.4,16,12h7c0.6,0,1,0.4,1,1v10C24,23.6,23.6,24,23,24z"/>
</g>
</svg>
